<?xml version="1.0"?><svg width="640" height="480" xmlns="http://www.w3.org/2000/svg">
 <title>cloud</title>
 <g>
  <title>Layer 1</title>
  <g id="layer1">
   <path fill="#ffffff" stroke="#000000" stroke-width="10.856777" stroke-linejoin="round" stroke-miterlimit="4" stroke-dashoffset="0" id="path3422" d="m372.004578,10.836412c-40.388855,0 -75.427948,14.697666 -95.028412,36.403616c-18.184845,-8.672638 -40.22821,-13.916359 -64.171478,-13.916302c-61.620529,0 -111.685692,33.793919 -111.685692,75.387691c0,3.056519 0.840431,5.978012 1.365379,8.939568c-53.217186,5.731659 -94.072747,36.570053 -94.072747,74.097504c0,37.18367 40.070592,67.958542 92.570809,74.097427c-1.063759,4.174988 -1.911484,8.431519 -1.911484,12.810425c0,41.593781 50.065155,75.295532 111.685699,75.295532c30.181931,0 57.452942,-8.137878 77.552002,-21.289185c20.482758,16.445892 50.764099,27.187469 85.06131,27.187469c48.934784,0 90.072266,-21.46106 105.13205,-51.05719c12.053833,3.008789 24.905853,4.976715 38.50293,4.976715c61.620483,0 111.549133,-33.793945 111.549133,-75.387726c0,-20.915695 -12.632507,-39.796799 -33.041443,-53.453369c10.303528,-11.410339 16.657227,-24.652817 16.657227,-38.984131c0,-41.593781 -50.065186,-75.295601 -111.68576,-75.295547c-6.486664,0 -12.793732,0.480171 -18.978333,1.198105c-9.950348,-34.725868 -55.16272,-61.010603 -109.50119,-61.010603z"/>
   <path fill="#ffffff" stroke="#000000" stroke-width="4.798749" stroke-linejoin="round" stroke-miterlimit="4" stroke-dashoffset="0" id="path3424" d="m527.2547,392.76651a41.677917,28.132536 0 1 1-83.355835,0a41.677917,28.132536 0 1 183.355835,0z"/>
   <path fill="#ffffff" stroke="#000000" stroke-width="5.402773" stroke-linejoin="round" stroke-miterlimit="4" stroke-dashoffset="0" id="path3426" d="m570.074829,454.142914a28.928062,19.526403 0 1 1-57.85614,0a28.928062,19.526403 0 1 157.85614,0z"/>
  </g>
 </g>
</svg>